<mxfile host="65bd71144e">
    <diagram id="p1opWVT5K81A6eTQymOx" name="Page-1">
        <mxGraphModel dx="597" dy="309" grid="1" gridSize="10" guides="1" tooltips="1" connect="1" arrows="1" fold="1" page="1" pageScale="1" pageWidth="850" pageHeight="1100" math="0" shadow="0">
            <root>
                <mxCell id="0"/>
                <mxCell id="1" parent="0"/>
                <mxCell id="2" value="&lt;font style=&quot;font-size: 21px;&quot;&gt;C&lt;/font&gt;" style="whiteSpace=wrap;html=1;" vertex="1" parent="1">
                    <mxGeometry x="180" y="120" width="40" height="40" as="geometry"/>
                </mxCell>
                <mxCell id="3" value="&lt;span style=&quot;font-size: 21px;&quot;&gt;a&lt;/span&gt;" style="whiteSpace=wrap;html=1;" vertex="1" parent="1">
                    <mxGeometry x="220" y="120" width="40" height="40" as="geometry"/>
                </mxCell>
                <mxCell id="4" value="&lt;span style=&quot;font-size: 21px;&quot;&gt;e&lt;/span&gt;" style="whiteSpace=wrap;html=1;" vertex="1" parent="1">
                    <mxGeometry x="260" y="120" width="40" height="40" as="geometry"/>
                </mxCell>
                <mxCell id="5" value="&lt;span style=&quot;font-size: 21px;&quot;&gt;c&lt;/span&gt;" style="whiteSpace=wrap;html=1;" vertex="1" parent="1">
                    <mxGeometry x="300" y="120" width="40" height="40" as="geometry"/>
                </mxCell>
                <mxCell id="6" value="&lt;span style=&quot;font-size: 21px;&quot;&gt;a&lt;/span&gt;" style="whiteSpace=wrap;html=1;" vertex="1" parent="1">
                    <mxGeometry x="340" y="120" width="40" height="40" as="geometry"/>
                </mxCell>
                <mxCell id="7" value="&lt;span style=&quot;font-size: 21px;&quot;&gt;r&lt;/span&gt;" style="whiteSpace=wrap;html=1;" vertex="1" parent="1">
                    <mxGeometry x="380" y="120" width="40" height="40" as="geometry"/>
                </mxCell>
                <mxCell id="8" value="&lt;font style=&quot;font-size: 21px;&quot;&gt;F&lt;/font&gt;" style="whiteSpace=wrap;html=1;" vertex="1" parent="1">
                    <mxGeometry x="180" y="200" width="40" height="40" as="geometry"/>
                </mxCell>
                <mxCell id="9" value="&lt;span style=&quot;font-size: 21px;&quot;&gt;d&lt;/span&gt;" style="whiteSpace=wrap;html=1;" vertex="1" parent="1">
                    <mxGeometry x="220" y="200" width="40" height="40" as="geometry"/>
                </mxCell>
                <mxCell id="10" value="&lt;span style=&quot;font-size: 21px;&quot;&gt;h&lt;/span&gt;" style="whiteSpace=wrap;html=1;" vertex="1" parent="1">
                    <mxGeometry x="260" y="200" width="40" height="40" as="geometry"/>
                </mxCell>
                <mxCell id="11" value="&lt;span style=&quot;font-size: 21px;&quot;&gt;f&lt;/span&gt;" style="whiteSpace=wrap;html=1;" vertex="1" parent="1">
                    <mxGeometry x="300" y="200" width="40" height="40" as="geometry"/>
                </mxCell>
                <mxCell id="12" value="&lt;span style=&quot;font-size: 21px;&quot;&gt;d&lt;/span&gt;" style="whiteSpace=wrap;html=1;" vertex="1" parent="1">
                    <mxGeometry x="340" y="200" width="40" height="40" as="geometry"/>
                </mxCell>
                <mxCell id="13" value="&lt;span style=&quot;font-size: 21px;&quot;&gt;u&lt;/span&gt;" style="whiteSpace=wrap;html=1;" vertex="1" parent="1">
                    <mxGeometry x="380" y="200" width="40" height="40" as="geometry"/>
                </mxCell>
                <mxCell id="14" value="3" style="ellipse;whiteSpace=wrap;html=1;fontSize=21;" vertex="1" parent="1">
                    <mxGeometry x="100" y="160" width="50" height="50" as="geometry"/>
                </mxCell>
                <mxCell id="15" value="&lt;ul style=&quot;list-style-image: url(&amp;quot;/w/skins/Vector/resources/common/images/bullet-icon.svg?d4515&amp;quot;); margin: 0px; padding: 0px; font-family: sans-serif; font-size: 18px; text-align: start;&quot;&gt;&lt;font color=&quot;#000000&quot; style=&quot;background-color: rgb(255, 255, 255); font-size: 18px;&quot;&gt;&lt;li style=&quot;margin: 0px; display: inline;&quot;&gt;&lt;span style=&quot;&quot; class=&quot;nowrap&quot;&gt;&lt;a style=&quot;background-image: none; background-position: initial; background-size: initial; background-repeat: initial; background-attachment: initial; background-origin: initial; background-clip: initial; text-decoration-line: none; overflow-wrap: break-word;&quot; title=&quot;A&quot; href=&quot;https://en.wikipedia.org/wiki/A&quot;&gt;A&lt;/a&gt;a&amp;nbsp;&lt;/span&gt;&lt;/li&gt;&lt;li style=&quot;margin: 0px; display: inline;&quot;&gt;&lt;span style=&quot;&quot; class=&quot;nowrap&quot;&gt;&lt;a style=&quot;text-decoration-line: none; background-image: none; background-position: initial; background-size: initial; background-repeat: initial; background-attachment: initial; background-origin: initial; background-clip: initial; overflow-wrap: break-word;&quot; title=&quot;B&quot; href=&quot;https://en.wikipedia.org/wiki/B&quot;&gt;B&lt;/a&gt;b&amp;nbsp;&lt;/span&gt;&lt;/li&gt;&lt;li style=&quot;margin: 0px; display: inline;&quot;&gt;&lt;span style=&quot;&quot; class=&quot;nowrap&quot;&gt;&lt;a style=&quot;text-decoration-line: none; background-image: none; background-position: initial; background-size: initial; background-repeat: initial; background-attachment: initial; background-origin: initial; background-clip: initial; overflow-wrap: break-word;&quot; title=&quot;C&quot; href=&quot;https://en.wikipedia.org/wiki/C&quot;&gt;C&lt;/a&gt;c&amp;nbsp;&lt;/span&gt;&lt;/li&gt;&lt;li style=&quot;margin: 0px; display: inline;&quot;&gt;&lt;span style=&quot;&quot; class=&quot;nowrap&quot;&gt;&lt;a style=&quot;text-decoration-line: none; background-image: none; background-position: initial; background-size: initial; background-repeat: initial; background-attachment: initial; background-origin: initial; background-clip: initial; overflow-wrap: break-word;&quot; title=&quot;D&quot; href=&quot;https://en.wikipedia.org/wiki/D&quot;&gt;D&lt;/a&gt;d&amp;nbsp;&lt;/span&gt;&lt;/li&gt;&lt;li style=&quot;margin: 0px; display: inline;&quot;&gt;&lt;span style=&quot;&quot; class=&quot;nowrap&quot;&gt;&lt;a style=&quot;text-decoration-line: none; background-image: none; background-position: initial; background-size: initial; background-repeat: initial; background-attachment: initial; background-origin: initial; background-clip: initial; overflow-wrap: break-word;&quot; title=&quot;E&quot; href=&quot;https://en.wikipedia.org/wiki/E&quot;&gt;E&lt;/a&gt;e&amp;nbsp;&lt;/span&gt;&lt;/li&gt;&lt;li style=&quot;margin: 0px; display: inline;&quot;&gt;&lt;span style=&quot;&quot; class=&quot;nowrap&quot;&gt;&lt;a style=&quot;text-decoration-line: none; background-image: none; background-position: initial; background-size: initial; background-repeat: initial; background-attachment: initial; background-origin: initial; background-clip: initial; overflow-wrap: break-word;&quot; title=&quot;F&quot; href=&quot;https://en.wikipedia.org/wiki/F&quot;&gt;F&lt;/a&gt;f&amp;nbsp;&lt;/span&gt;&lt;/li&gt;&lt;li style=&quot;margin: 0px; display: inline;&quot;&gt;&lt;span style=&quot;&quot; class=&quot;nowrap&quot;&gt;&lt;a style=&quot;text-decoration-line: none; background-image: none; background-position: initial; background-size: initial; background-repeat: initial; background-attachment: initial; background-origin: initial; background-clip: initial; overflow-wrap: break-word;&quot; title=&quot;G&quot; href=&quot;https://en.wikipedia.org/wiki/G&quot;&gt;G&lt;/a&gt;g&amp;nbsp;&lt;/span&gt;&lt;/li&gt;&lt;li style=&quot;margin: 0px; display: inline;&quot;&gt;&lt;span style=&quot;&quot; class=&quot;nowrap&quot;&gt;&lt;a style=&quot;text-decoration-line: none; background-image: none; background-position: initial; background-size: initial; background-repeat: initial; background-attachment: initial; background-origin: initial; background-clip: initial; overflow-wrap: break-word;&quot; title=&quot;H&quot; href=&quot;https://en.wikipedia.org/wiki/H&quot;&gt;H&lt;/a&gt;h&amp;nbsp;&lt;/span&gt;&lt;/li&gt;&lt;li style=&quot;margin: 0px; display: inline;&quot;&gt;&lt;span style=&quot;&quot; class=&quot;nowrap&quot;&gt;&lt;a style=&quot;text-decoration-line: none; background-image: none; background-position: initial; background-size: initial; background-repeat: initial; background-attachment: initial; background-origin: initial; background-clip: initial; overflow-wrap: break-word;&quot; title=&quot;I&quot; href=&quot;https://en.wikipedia.org/wiki/I&quot;&gt;I&lt;/a&gt;i&amp;nbsp;&lt;/span&gt;&lt;/li&gt;&lt;li style=&quot;margin: 0px; display: inline;&quot;&gt;&lt;span style=&quot;&quot; class=&quot;nowrap&quot;&gt;&lt;a style=&quot;text-decoration-line: none; background-image: none; background-position: initial; background-size: initial; background-repeat: initial; background-attachment: initial; background-origin: initial; background-clip: initial; overflow-wrap: break-word;&quot; title=&quot;J&quot; href=&quot;https://en.wikipedia.org/wiki/J&quot;&gt;J&lt;/a&gt;j&amp;nbsp;&lt;/span&gt;&lt;/li&gt;&lt;li style=&quot;margin: 0px; display: inline;&quot;&gt;&lt;span style=&quot;&quot; class=&quot;nowrap&quot;&gt;&lt;a style=&quot;text-decoration-line: none; background-image: none; background-position: initial; background-size: initial; background-repeat: initial; background-attachment: initial; background-origin: initial; background-clip: initial; overflow-wrap: break-word;&quot; title=&quot;K&quot; href=&quot;https://en.wikipedia.org/wiki/K&quot;&gt;K&lt;/a&gt;k&amp;nbsp;&lt;/span&gt;&lt;/li&gt;&lt;li style=&quot;margin: 0px; display: inline;&quot;&gt;&lt;span style=&quot;&quot; class=&quot;nowrap&quot;&gt;&lt;a style=&quot;text-decoration-line: none; background-image: none; background-position: initial; background-size: initial; background-repeat: initial; background-attachment: initial; background-origin: initial; background-clip: initial; overflow-wrap: break-word;&quot; title=&quot;L&quot; href=&quot;https://en.wikipedia.org/wiki/L&quot;&gt;L&lt;/a&gt;l&amp;nbsp;&lt;/span&gt;&lt;/li&gt;&lt;li style=&quot;margin: 0px; display: inline;&quot;&gt;&lt;span style=&quot;&quot; class=&quot;nowrap&quot;&gt;&lt;a style=&quot;text-decoration-line: none; background-image: none; background-position: initial; background-size: initial; background-repeat: initial; background-attachment: initial; background-origin: initial; background-clip: initial; overflow-wrap: break-word;&quot; title=&quot;M&quot; href=&quot;https://en.wikipedia.org/wiki/M&quot;&gt;M&lt;/a&gt;m&amp;nbsp;&lt;/span&gt;&lt;/li&gt;&lt;li style=&quot;margin: 0px; display: inline;&quot;&gt;&lt;span style=&quot;&quot; class=&quot;nowrap&quot;&gt;&lt;a style=&quot;text-decoration-line: none; background-image: none; background-position: initial; background-size: initial; background-repeat: initial; background-attachment: initial; background-origin: initial; background-clip: initial; overflow-wrap: break-word;&quot; title=&quot;N&quot; href=&quot;https://en.wikipedia.org/wiki/N&quot;&gt;N&lt;/a&gt;n&amp;nbsp;&lt;/span&gt;&lt;/li&gt;&lt;li style=&quot;margin: 0px; display: inline;&quot;&gt;&lt;span style=&quot;&quot; class=&quot;nowrap&quot;&gt;&lt;a style=&quot;text-decoration-line: none; background-image: none; background-position: initial; background-size: initial; background-repeat: initial; background-attachment: initial; background-origin: initial; background-clip: initial; overflow-wrap: break-word;&quot; title=&quot;O&quot; href=&quot;https://en.wikipedia.org/wiki/O&quot;&gt;O&lt;/a&gt;o&amp;nbsp;&lt;/span&gt;&lt;/li&gt;&lt;li style=&quot;margin: 0px; display: inline;&quot;&gt;&lt;span style=&quot;&quot; class=&quot;nowrap&quot;&gt;&lt;a style=&quot;text-decoration-line: none; background-image: none; background-position: initial; background-size: initial; background-repeat: initial; background-attachment: initial; background-origin: initial; background-clip: initial; overflow-wrap: break-word;&quot; title=&quot;P&quot; href=&quot;https://en.wikipedia.org/wiki/P&quot;&gt;P&lt;/a&gt;p&amp;nbsp;&lt;/span&gt;&lt;/li&gt;&lt;li style=&quot;margin: 0px; display: inline;&quot;&gt;&lt;span style=&quot;&quot; class=&quot;nowrap&quot;&gt;&lt;a style=&quot;text-decoration-line: none; background-image: none; background-position: initial; background-size: initial; background-repeat: initial; background-attachment: initial; background-origin: initial; background-clip: initial; overflow-wrap: break-word;&quot; title=&quot;Q&quot; href=&quot;https://en.wikipedia.org/wiki/Q&quot;&gt;Q&lt;/a&gt;q&amp;nbsp;&lt;/span&gt;&lt;/li&gt;&lt;li style=&quot;margin: 0px; display: inline;&quot;&gt;&lt;span style=&quot;&quot; class=&quot;nowrap&quot;&gt;&lt;a style=&quot;text-decoration-line: none; background-image: none; background-position: initial; background-size: initial; background-repeat: initial; background-attachment: initial; background-origin: initial; background-clip: initial; overflow-wrap: break-word;&quot; title=&quot;R&quot; href=&quot;https://en.wikipedia.org/wiki/R&quot;&gt;R&lt;/a&gt;r&amp;nbsp;&lt;/span&gt;&lt;/li&gt;&lt;li style=&quot;margin: 0px; display: inline;&quot;&gt;&lt;span style=&quot;&quot; class=&quot;nowrap&quot;&gt;&lt;a style=&quot;text-decoration-line: none; background-image: none; background-position: initial; background-size: initial; background-repeat: initial; background-attachment: initial; background-origin: initial; background-clip: initial; overflow-wrap: break-word;&quot; title=&quot;S&quot; href=&quot;https://en.wikipedia.org/wiki/S&quot;&gt;S&lt;/a&gt;s&amp;nbsp;&lt;/span&gt;&lt;/li&gt;&lt;li style=&quot;margin: 0px; display: inline;&quot;&gt;&lt;span style=&quot;&quot; class=&quot;nowrap&quot;&gt;&lt;a style=&quot;text-decoration-line: none; background-image: none; background-position: initial; background-size: initial; background-repeat: initial; background-attachment: initial; background-origin: initial; background-clip: initial; overflow-wrap: break-word;&quot; title=&quot;T&quot; href=&quot;https://en.wikipedia.org/wiki/T&quot;&gt;T&lt;/a&gt;t&amp;nbsp;&lt;/span&gt;&lt;/li&gt;&lt;li style=&quot;margin: 0px; display: inline;&quot;&gt;&lt;span style=&quot;&quot; class=&quot;nowrap&quot;&gt;&lt;a style=&quot;text-decoration-line: none; background-image: none; background-position: initial; background-size: initial; background-repeat: initial; background-attachment: initial; background-origin: initial; background-clip: initial; overflow-wrap: break-word;&quot; title=&quot;U&quot; href=&quot;https://en.wikipedia.org/wiki/U&quot;&gt;U&lt;/a&gt;u&amp;nbsp;&lt;/span&gt;&lt;/li&gt;&lt;li style=&quot;margin: 0px; display: inline;&quot;&gt;&lt;span style=&quot;&quot; class=&quot;nowrap&quot;&gt;&lt;a style=&quot;text-decoration-line: none; background-image: none; background-position: initial; background-size: initial; background-repeat: initial; background-attachment: initial; background-origin: initial; background-clip: initial; overflow-wrap: break-word;&quot; title=&quot;V&quot; href=&quot;https://en.wikipedia.org/wiki/V&quot;&gt;V&lt;/a&gt;v&amp;nbsp;&lt;/span&gt;&lt;/li&gt;&lt;li style=&quot;margin: 0px; display: inline;&quot;&gt;&lt;span style=&quot;&quot; class=&quot;nowrap&quot;&gt;&lt;a style=&quot;text-decoration-line: none; background-image: none; background-position: initial; background-size: initial; background-repeat: initial; background-attachment: initial; background-origin: initial; background-clip: initial; overflow-wrap: break-word;&quot; title=&quot;W&quot; href=&quot;https://en.wikipedia.org/wiki/W&quot;&gt;W&lt;/a&gt;w&amp;nbsp;&lt;/span&gt;&lt;/li&gt;&lt;li style=&quot;margin: 0px; display: inline;&quot;&gt;&lt;span style=&quot;&quot; class=&quot;nowrap&quot;&gt;&lt;a style=&quot;text-decoration-line: none; background-image: none; background-position: initial; background-size: initial; background-repeat: initial; background-attachment: initial; background-origin: initial; background-clip: initial; overflow-wrap: break-word;&quot; title=&quot;X&quot; href=&quot;https://en.wikipedia.org/wiki/X&quot;&gt;X&lt;/a&gt;x&amp;nbsp;&lt;/span&gt;&lt;/li&gt;&lt;li style=&quot;margin: 0px; display: inline;&quot;&gt;&lt;span style=&quot;&quot; class=&quot;nowrap&quot;&gt;&lt;a style=&quot;text-decoration-line: none; background-image: none; background-position: initial; background-size: initial; background-repeat: initial; background-attachment: initial; background-origin: initial; background-clip: initial; overflow-wrap: break-word;&quot; title=&quot;Y&quot; href=&quot;https://en.wikipedia.org/wiki/Y&quot;&gt;Y&lt;/a&gt;y&amp;nbsp;&lt;/span&gt;&lt;/li&gt;&lt;li style=&quot;margin: 0px; display: inline;&quot;&gt;&lt;span style=&quot;&quot; class=&quot;nowrap&quot;&gt;&lt;a style=&quot;background-image: none; background-position: initial; background-size: initial; background-repeat: initial; background-attachment: initial; background-origin: initial; background-clip: initial; text-decoration-line: none; overflow-wrap: break-word;&quot; title=&quot;Z&quot; href=&quot;https://en.wikipedia.org/wiki/Z&quot;&gt;Z&lt;/a&gt;z&lt;/span&gt;&lt;/li&gt;&lt;/font&gt;&lt;/ul&gt;" style="text;html=1;align=center;verticalAlign=middle;resizable=0;points=[];autosize=1;strokeColor=none;fillColor=none;fontSize=21;" vertex="1" parent="1">
                    <mxGeometry x="45" y="30" width="690" height="40" as="geometry"/>
                </mxCell>
            </root>
        </mxGraphModel>
    </diagram>
</mxfile>